<svg xmlns="http://www.w3.org/2000/svg" viewBox="0 0 395.52 137.10415881533788" height="137.10415881533788" width="395.52"><g><svg viewBox="0 0 641.6765037014329 222.4325376" height="137.10415881533788" width="395.52"><g transform="matrix(1,0,0,1,246.156503701433,2.509020617237809)"><svg viewBox="0 0 395.52 217.41449636552437" height="217.41449636552437" width="395.52"><g id="textblocktransform"><svg viewBox="0 0 395.52 217.41449636552437" height="217.41449636552437" width="395.52" id="textblock"><g><svg viewBox="0 0 395.52 217.41449636552437" height="217.41449636552437" width="395.52"><g transform="matrix(1,0,0,1,0,0)"><svg width="395.52" viewBox="0.8999999999999988 -34.1 144.45000000000002 84.1" height="217.41449636552437" data-palette-color="#fbfbfb"><svg/><svg/><g class="wordmark-text-0" data-fill-palette-color="primary" id="text-0"><path d="M14.2 0.15v0c-2.6 0-4.9-0.543-6.9-1.63-2-1.08-3.567-2.62-4.7-4.62-1.133-2-1.7-4.35-1.7-7.05v0c0-2.7 0.567-5.05 1.7-7.05 1.133-2 2.71-3.55 4.73-4.65 2.013-1.1 4.337-1.65 6.97-1.65v0c2.067 0 3.893 0.217 5.48 0.65 1.58 0.433 2.83 1.083 3.75 1.95 0.913 0.867 1.37 1.95 1.37 3.25v0c0 1.567-0.4 2.79-1.2 3.67-0.8 0.887-1.95 1.33-3.45 1.33v0c-1 0-1.99-0.15-2.97-0.45-0.987-0.3-2.247-0.45-3.78-0.45v0c-1.267 0-2.333 0.2-3.2 0.6-0.867 0.4-1.3 1.133-1.3 2.2v0c0 1.1 0.433 1.89 1.3 2.37 0.867 0.487 1.933 0.73 3.2 0.73v0c1.033 0 1.9-0.1 2.6-0.3 0.7-0.2 1.367-0.4 2-0.6 0.633-0.2 1.35-0.3 2.15-0.3v0c1.7 0 2.96 0.49 3.78 1.47 0.813 0.987 1.22 2.247 1.22 3.78v0c0 1.3-0.483 2.457-1.45 3.47-0.967 1.02-2.283 1.82-3.95 2.4-1.667 0.587-3.55 0.88-5.65 0.88zM39.85 0.1v0c-3.9 0-7.007-1.16-9.32-3.48-2.32-2.313-3.48-5.587-3.48-9.82v0c0-2.6 0.533-4.883 1.6-6.85 1.067-1.967 2.56-3.51 4.48-4.63 1.913-1.113 4.153-1.67 6.72-1.67v0c2.867 0 5.25 0.557 7.15 1.67 1.9 1.12 3.327 2.663 4.28 4.63 0.947 1.967 1.42 4.25 1.42 6.85v0c0 4.233-1.057 7.507-3.17 9.82-2.12 2.32-5.347 3.48-9.68 3.48zM33-14.05v0c0 1.033 0.517 1.757 1.55 2.17 1.033 0.42 2.8 0.63 5.3 0.63v0c2.5 0 4.267-0.21 5.3-0.63 1.033-0.413 1.55-1.137 1.55-2.17v0c0-1-0.517-1.7-1.55-2.1-1.033-0.4-2.8-0.6-5.3-0.6v0c-2.5 0-4.267 0.2-5.3 0.6-1.033 0.4-1.55 1.1-1.55 2.1zM59.85 0v0c-1.5 0-2.69-0.443-3.57-1.33-0.887-0.88-1.33-1.97-1.33-3.27v0-16.55c0-1.4 0.427-2.583 1.28-3.55 0.847-0.967 2.053-1.45 3.62-1.45v0c1.533 0 2.683 0.483 3.45 1.45 0.767 0.967 1.15 2.183 1.15 3.65v0 2.5h0.9c0-2.833 0.6-4.81 1.8-5.93 1.2-1.113 2.683-1.67 4.45-1.67v0c2.267 0 3.933 0.7 5 2.1 1.067 1.4 1.6 3.233 1.6 5.5v0h0.9c0-1.9 0.317-3.4 0.95-4.5 0.633-1.1 1.443-1.893 2.43-2.38 0.98-0.48 2.003-0.72 3.07-0.72v0c2.167 0 3.76 0.517 4.78 1.55 1.013 1.033 1.67 2.417 1.97 4.15 0.3 1.733 0.45 3.683 0.45 5.85v0 10c0 1.3-0.44 2.39-1.32 3.27-0.887 0.887-2.063 1.33-3.53 1.33v0c-1.467 0-2.65-0.443-3.55-1.33-0.9-0.88-1.35-1.97-1.35-3.27v0-8.85c0-1.2-0.15-2.133-0.45-2.8-0.3-0.667-0.9-1-1.8-1v0c-0.967 0-1.59 0.367-1.87 1.1-0.287 0.733-0.43 1.667-0.43 2.8v0 8.75c0 1.3-0.417 2.39-1.25 3.27-0.833 0.887-1.983 1.33-3.45 1.33v0c-1.5 0-2.69-0.443-3.57-1.33-0.887-0.88-1.33-1.97-1.33-3.27v0-8.85c0-1.2-0.15-2.133-0.45-2.8-0.3-0.667-0.883-1-1.75-1v0c-0.967 0-1.573 0.367-1.82 1.1-0.253 0.733-0.38 1.667-0.38 2.8v0 8.75c0 1.3-0.4 2.39-1.2 3.27-0.8 0.887-1.933 1.33-3.4 1.33zM95.15-13v0c0-2.633 0.523-4.95 1.57-6.95 1.053-2 2.553-3.567 4.5-4.7 1.953-1.133 4.28-1.7 6.98-1.7v0c2.1 0 3.993 0.383 5.68 1.15 1.68 0.767 3.003 1.79 3.97 3.07 0.967 1.287 1.45 2.697 1.45 4.23v0c0 1.6-0.467 2.733-1.4 3.4-0.933 0.667-2.317 1-4.15 1v0h-10.5c0 0.867 0.343 1.583 1.03 2.15 0.68 0.567 1.837 0.85 3.47 0.85v0c0.833 0 1.61-0.083 2.33-0.25 0.713-0.167 1.447-0.327 2.2-0.48 0.747-0.147 1.587-0.22 2.52-0.22v0c1.333 0 2.433 0.473 3.3 1.42 0.867 0.953 1.3 2.263 1.3 3.93v0c0 1.967-1.007 3.5-3.02 4.6-2.02 1.1-4.663 1.65-7.93 1.65v0c-2.3 0-4.46-0.45-6.48-1.35-2.013-0.9-3.653-2.327-4.92-4.28-1.267-1.947-1.9-4.453-1.9-7.52zM103.4-15.15h7.95c0.5 0 0.667-0.233 0.5-0.7v0c-0.133-0.467-0.533-0.95-1.2-1.45-0.667-0.5-1.633-0.75-2.9-0.75v0c-1.467 0-2.56 0.317-3.28 0.95-0.713 0.633-1.07 1.283-1.07 1.95zM136.15 0.15v0c-1.767 0-3.357-0.4-4.77-1.2-1.42-0.8-2.53-1.943-3.33-3.43-0.8-1.48-1.2-3.22-1.2-5.22v0-8.8l-1.85 0.25c-1 0.133-1.883-0.217-2.65-1.05-0.767-0.833-1.15-1.883-1.15-3.15v0c0-1.267 0.383-2.31 1.15-3.13 0.767-0.813 1.65-1.153 2.65-1.02v0l1.85 0.25-0.05-3.4c-0.033-1.333 0.35-2.393 1.15-3.18 0.8-0.78 1.967-1.17 3.5-1.17v0c1.533 0 2.717 0.39 3.55 1.17 0.833 0.787 1.217 1.847 1.15 3.18v0l-0.1 3.4 2.65-0.35c1.8-0.267 3.167 0.057 4.1 0.97 0.933 0.92 1.4 2.013 1.4 3.28v0c0 1.267-0.46 2.357-1.38 3.27-0.913 0.92-2.237 1.263-3.97 1.03v0l-2.8-0.35v7.45c0 0.433 0.15 0.823 0.45 1.17 0.3 0.353 0.667 0.463 1.1 0.33v0c0.5-0.133 1.027-0.417 1.58-0.85 0.547-0.433 1.253-0.65 2.12-0.65v0c1.3 0 2.3 0.467 3 1.4 0.7 0.933 1.05 2.083 1.05 3.45v0c0 1.067-0.377 2.09-1.13 3.07-0.747 0.987-1.803 1.78-3.17 2.38-1.367 0.6-3 0.9-4.9 0.9z" fill="#fbfbfb" fill-rule="nonzero" stroke="none" stroke-width="1" stroke-linecap="butt" stroke-linejoin="miter" stroke-miterlimit="10" stroke-dasharray="" stroke-dashoffset="0" font-family="none" font-weight="none" font-size="none" text-anchor="none" style="mix-blend-mode: normal" data-fill-palette-color="primary" opacity="1"/><path transform="translate(0,39.7)" d="M19.05 0v0c-1.833 0-3.357-0.567-4.57-1.7-1.22-1.133-1.997-2.6-2.33-4.4v0h-0.9v11.5c0 1.367-0.383 2.527-1.15 3.48-0.767 0.947-1.933 1.42-3.5 1.42v0c-1.5 0-2.657-0.473-3.47-1.42-0.82-0.953-1.23-2.147-1.23-3.58v0-18.7c0-1.667-0.057-3.077-0.17-4.23-0.12-1.147-0.23-2.187-0.33-3.12v0c-0.133-1.4 0.15-2.593 0.85-3.58 0.7-0.98 1.833-1.57 3.4-1.77v0c2.033-0.267 3.477 0.09 4.33 1.07 0.847 0.987 1.27 2.513 1.27 4.58v0 2.4l0.2 0.05c0.167-1.3 0.56-2.577 1.18-3.83 0.613-1.247 1.487-2.28 2.62-3.1 1.133-0.813 2.567-1.22 4.3-1.22v0c2.9 0 5.06 1.157 6.48 3.47 1.413 2.32 2.12 5.413 2.12 9.28v0c0 8.933-3.033 13.4-9.1 13.4zM11.05-13.5v0c0 0.533 0.067 0.95 0.2 1.25v0c0.2 0.633 0.627 1.09 1.28 1.37 0.647 0.287 1.62 0.43 2.92 0.43v0c1.667 0 2.81-0.25 3.43-0.75 0.613-0.5 0.92-1.267 0.92-2.3v0c0-1.067-0.3-1.843-0.9-2.33-0.6-0.48-1.733-0.72-3.4-0.72v0c-1.333 0-2.323 0.14-2.97 0.42-0.653 0.287-1.08 0.747-1.28 1.38v0c-0.133 0.3-0.2 0.717-0.2 1.25zM35.6 0v0c-1.567 0-2.783-0.45-3.65-1.35-0.867-0.9-1.3-2.033-1.3-3.4v0-16.4c0-1.433 0.433-2.627 1.3-3.58 0.867-0.947 2.083-1.42 3.65-1.42v0c1.567 0 2.767 0.473 3.6 1.42 0.833 0.953 1.25 2.113 1.25 3.48v0 1.05h0.95c0.133-1.767 0.8-3.217 2-4.35 1.2-1.133 2.617-1.7 4.25-1.7v0c1.633 0 2.927 0.5 3.88 1.5 0.947 1 1.42 2.333 1.42 4v0c0 1.567-0.45 2.867-1.35 3.9-0.9 1.033-2.05 1.55-3.45 1.55v0c-1.167 0-2.14-0.277-2.92-0.83-0.787-0.547-1.363-1.187-1.73-1.92v0c-1.067-0.133-1.843-0.027-2.33 0.32-0.48 0.353-0.72 1.047-0.72 2.08v0 10.9c0 1.367-0.417 2.5-1.25 3.4-0.833 0.9-2.033 1.35-3.6 1.35zM67.35 0.1v0c-3.9 0-7.007-1.16-9.32-3.48-2.32-2.313-3.48-5.587-3.48-9.82v0c0-2.6 0.533-4.883 1.6-6.85 1.067-1.967 2.56-3.51 4.48-4.63 1.913-1.113 4.153-1.67 6.72-1.67v0c2.867 0 5.25 0.557 7.15 1.67 1.9 1.12 3.327 2.663 4.28 4.63 0.947 1.967 1.42 4.25 1.42 6.85v0c0 4.233-1.057 7.507-3.17 9.82-2.12 2.32-5.347 3.48-9.68 3.48zM60.5-14.05v0c0 1.033 0.517 1.757 1.55 2.17 1.033 0.42 2.8 0.63 5.3 0.63v0c2.5 0 4.267-0.21 5.3-0.63 1.033-0.413 1.55-1.137 1.55-2.17v0c0-1-0.517-1.7-1.55-2.1-1.033-0.4-2.8-0.6-5.3-0.6v0c-2.5 0-4.267 0.2-5.3 0.6-1.033 0.4-1.55 1.1-1.55 2.1zM87.85 0.2v0c-1.933 0-3.39-0.56-4.37-1.68-0.987-1.113-1.48-2.437-1.48-3.97v0c0-0.967 0.25-1.967 0.75-3 0.5-1.033 1.333-1.917 2.5-2.65v0c0.667-0.433 1.527-0.777 2.58-1.03 1.047-0.247 1.987-0.453 2.82-0.62v0c-1.833-0.567-3.267-1.233-4.3-2-1.033-0.767-1.883-1.55-2.55-2.35v0c-0.933-1.267-1.357-2.643-1.27-4.13 0.08-1.48 0.753-2.753 2.02-3.82v0c0.9-0.767 1.893-1.167 2.98-1.2 1.08-0.033 2.12 0.25 3.12 0.85 1 0.6 1.817 1.483 2.45 2.65v0c0.733 1.3 1.26 2.423 1.58 3.37 0.313 0.953 0.68 1.813 1.1 2.58 0.413 0.767 1.087 1.533 2.02 2.3v0c0.4-0.133 0.75-0.317 1.05-0.55 0.3-0.233 0.633-0.7 1-1.4v0c-0.833-0.2-1.583-0.7-2.25-1.5-0.667-0.8-1-1.917-1-3.35v0c0-1.533 0.467-2.76 1.4-3.68 0.933-0.913 2.317-1.37 4.15-1.37v0c1.5 0 2.717 0.49 3.65 1.47 0.933 0.987 1.4 2.213 1.4 3.68v0c0 1.567-0.307 2.807-0.92 3.72-0.62 0.92-1.447 1.713-2.48 2.38v0c-0.533 0.4-1.183 0.74-1.95 1.02-0.767 0.287-1.583 0.53-2.45 0.73v0c1.367 0.2 2.667 0.583 3.9 1.15 1.233 0.567 2.367 1.383 3.4 2.45v0c0.767 0.767 1.293 1.69 1.58 2.77 0.28 1.087 0.28 2.163 0 3.23-0.287 1.067-0.88 1.967-1.78 2.7v0c-0.933 0.733-1.967 1.117-3.1 1.15-1.133 0.033-2.207-0.243-3.22-0.83-1.02-0.58-1.83-1.42-2.43-2.52v0c-0.6-1.1-1.067-2.193-1.4-3.28-0.333-1.08-0.707-2.08-1.12-3-0.42-0.913-1.03-1.653-1.83-2.22v0c-0.533 0.3-0.85 0.657-0.95 1.07-0.1 0.42-0.073 0.887 0.08 1.4 0.147 0.52 0.313 1.07 0.5 1.65 0.18 0.587 0.27 1.197 0.27 1.83v0c0 1-0.2 1.957-0.6 2.87-0.4 0.92-1.007 1.67-1.82 2.25-0.82 0.587-1.83 0.88-3.03 0.88zM120.25 10.3v0c-2.233 0-4.057-0.367-5.47-1.1-1.42-0.733-2.53-1.7-3.33-2.9v0c-0.667-1.033-1.04-2.117-1.12-3.25-0.087-1.133 0.12-2.193 0.62-3.18 0.5-0.98 1.25-1.737 2.25-2.27v0c1.033-0.567 2.067-0.793 3.1-0.68 1.033 0.12 1.983 0.503 2.85 1.15 0.867 0.653 1.533 1.497 2 2.53v0c0.5 1.1 1.01 1.91 1.53 2.43 0.513 0.513 1.187 0.62 2.02 0.32v0c0.8-0.267 1.093-1 0.88-2.2-0.22-1.2-0.663-2.617-1.33-4.25v0h-1.85c-1.433 0-2.867-0.517-4.3-1.55-1.433-1.033-2.633-2.667-3.6-4.9v0l-4.1-9.5c-0.633-1.5-0.69-2.883-0.17-4.15 0.513-1.267 1.453-2.183 2.82-2.75v0c1.267-0.567 2.517-0.6 3.75-0.1 1.233 0.5 2.2 1.567 2.9 3.2v0l3.8 8.85c0.633 1.433 1.327 2.467 2.08 3.1 0.747 0.633 1.537 0.733 2.37 0.3v0c0.733-0.4 1.133-0.96 1.2-1.68 0.067-0.713-0.283-1.587-1.05-2.62v0c-0.333-0.467-0.723-0.983-1.17-1.55-0.453-0.567-0.853-1.227-1.2-1.98-0.353-0.747-0.53-1.587-0.53-2.52v0c0-1.567 0.533-2.86 1.6-3.88 1.067-1.013 2.467-1.52 4.2-1.52v0c1.567 0 2.827 0.5 3.78 1.5 0.947 1 1.42 2.3 1.42 3.9v0c0 1.133-0.133 2.383-0.4 3.75-0.267 1.367-0.567 2.633-0.9 3.8v0l-3.6 13.15c-0.533 1.967-1.233 3.75-2.1 5.35-0.867 1.6-2.017 2.867-3.45 3.8-1.433 0.933-3.267 1.4-5.5 1.4z" fill="#4482d8" fill-rule="nonzero" stroke="none" stroke-width="1" stroke-linecap="butt" stroke-linejoin="miter" stroke-miterlimit="10" stroke-dasharray="" stroke-dashoffset="0" font-family="none" font-weight="none" font-size="none" text-anchor="none" style="mix-blend-mode: normal" data-fill-palette-color="accent" opacity="1"/></g></svg></g></svg></g></svg></g></svg></g><g><svg viewBox="0 0 222.4325376 222.4325376" height="222.4325376" width="222.4325376"><g><svg/></g><g id="icon-0"><svg viewBox="0 0 222.4325376 222.4325376" height="222.4325376" width="222.4325376"><g><path transform="scale(2.22433,2.22433)" d="M30 100c-16.569 0-30-13.431-30-30v-40c0-16.569 13.431-30 30-30h40c16.569 0 30 13.431 30 30v40c0 16.569-13.431 30-30 30z" fill="#4482d8" fill-rule="nonzero" stroke="none" stroke-width="1" stroke-linecap="butt" stroke-linejoin="miter" stroke-miterlimit="10" stroke-dasharray="" stroke-dashoffset="0" font-family="none" font-weight="none" font-size="none" text-anchor="none" style="mix-blend-mode: normal" data-fill-palette-color="accent"/></g><g transform="matrix(1,0,0,1,44.92019438932539,44.48650752)"><svg viewBox="0 0 132.5921488213492 133.45952255999998" height="133.45952255999998" width="132.5921488213492"><g><svg xmlns="http://www.w3.org/2000/svg" viewBox="7.936810401460793 7.778 84.14618959853921 84.69664598463821" x="0" y="0" height="133.45952255999998" width="132.5921488213492" class="icon-dxe-0" data-fill-palette-color="quaternary" id="dxe-0"><path d="M92.083 46.192L88.1 37.025 61.5 48.581A28 28 0 0 0 60.47 47.01L82.855 24.625 75.783 17.55 53.397 39.936C53.045 39.688 52.687 39.447 52.322 39.214L63.762 11.6 54.521 7.778 43.09 35.383A28.889 28.889 0 1 0 65.15 57.897zM36.813 82.5A18.889 18.889 0 1 1 55.704 63.611C55.686 74.036 47.239 82.483 36.813 82.5" fill="#1f2d5a" data-fill-palette-color="quaternary"/></svg></g></svg></g></svg></g></svg></g></svg></g><defs/></svg>